<svg width="174" height="28" viewBox="0 0 174 28" fill="none" xmlns="http://www.w3.org/2000/svg">
<path d="M10.96 0.119998C12.5467 0.119998 13.9267 0.299998 15.1 0.659999C16.2867 1.00667 17.2267 1.38 17.92 1.78C18.6267 2.18 19.0533 2.44 19.2 2.56L16.76 6.62C16.5467 6.44667 16.18 6.20667 15.66 5.9C15.1533 5.58 14.54 5.3 13.82 5.06C13.1 4.80667 12.32 4.68 11.48 4.68C10.2667 4.68 9.29333 4.91333 8.56 5.38C7.84 5.83333 7.48 6.49333 7.48 7.36C7.48 7.94667 7.67333 8.47333 8.06 8.94C8.44667 9.39333 9.01333 9.82 9.76 10.22C10.52 10.62 11.4467 11.04 12.54 11.48C13.5 11.8533 14.4133 12.2867 15.28 12.78C16.16 13.2733 16.94 13.8533 17.62 14.52C18.3133 15.1867 18.86 15.96 19.26 16.84C19.6733 17.72 19.88 18.7267 19.88 19.86C19.88 21.1267 19.62 22.2333 19.1 23.18C18.5933 24.1267 17.8867 24.92 16.98 25.56C16.0867 26.2 15.06 26.68 13.9 27C12.74 27.32 11.52 27.48 10.24 27.48C8.50667 27.48 6.94667 27.28 5.56 26.88C4.18667 26.4667 3.07333 26.0267 2.22 25.56C1.36667 25.0933 0.866667 24.7933 0.72 24.66L3.28 20.44C3.44 20.56 3.74 20.7533 4.18 21.02C4.63333 21.2867 5.18 21.56 5.82 21.84C6.47333 22.12 7.18 22.36 7.94 22.56C8.71333 22.76 9.5 22.86 10.3 22.86C11.74 22.86 12.8267 22.56 13.56 21.96C14.2933 21.36 14.66 20.58 14.66 19.62C14.66 18.9 14.4267 18.2667 13.96 17.72C13.4933 17.1733 12.8333 16.6733 11.98 16.22C11.14 15.7533 10.1333 15.28 8.96 14.8C7.78667 14.3067 6.69333 13.7333 5.68 13.08C4.68 12.4133 3.87333 11.6 3.26 10.64C2.64667 9.66667 2.34 8.47333 2.34 7.06C2.34 5.66 2.73333 4.44 3.52 3.4C4.32 2.36 5.37333 1.55333 6.68 0.979998C8 0.406665 9.42667 0.119998 10.96 0.119998ZM39.5141 0.599999H44.5141V16.88C44.5141 19.0533 44.0807 20.9333 43.2141 22.52C42.3607 24.1067 41.1541 25.3333 39.5941 26.2C38.0474 27.0533 36.2207 27.48 34.1141 27.48C31.9941 27.48 30.1474 27.0533 28.5741 26.2C27.0141 25.3333 25.8007 24.1067 24.9341 22.52C24.0807 20.9333 23.6541 19.0533 23.6541 16.88V0.599999H28.6341V16.62C28.6341 17.9533 28.8607 19.0933 29.3141 20.04C29.7807 20.9733 30.4274 21.6867 31.2541 22.18C32.0807 22.66 33.0341 22.9 34.1141 22.9C35.1807 22.9 36.1207 22.66 36.9341 22.18C37.7474 21.6867 38.3807 20.9733 38.8341 20.04C39.2874 19.0933 39.5141 17.9533 39.5141 16.62V0.599999ZM49.1084 0.599999H57.5084C58.9884 0.599999 60.3684 0.799999 61.6484 1.2C62.9284 1.6 63.9618 2.26666 64.7484 3.2C65.5484 4.13333 65.9484 5.40667 65.9484 7.02C65.9484 8.1 65.7418 9.06667 65.3284 9.92C64.9151 10.7733 64.3884 11.4733 63.7484 12.02C63.1084 12.5533 62.4351 12.8933 61.7284 13.04C62.3284 13.1067 62.9418 13.2867 63.5684 13.58C64.1951 13.8733 64.7751 14.28 65.3084 14.8C65.8418 15.32 66.2684 15.9733 66.5884 16.76C66.9218 17.5467 67.0884 18.4667 67.0884 19.52C67.0884 20.9867 66.7684 22.2867 66.1284 23.42C65.5018 24.54 64.5684 25.42 63.3284 26.06C62.1018 26.6867 60.5751 27 58.7484 27H49.1084V0.599999ZM54.1084 22.96H57.7284C58.7418 22.96 59.5484 22.7933 60.1484 22.46C60.7618 22.1267 61.2018 21.6733 61.4684 21.1C61.7351 20.5267 61.8684 19.8733 61.8684 19.14C61.8684 17.9667 61.4951 17.0667 60.7484 16.44C60.0018 15.8133 58.9418 15.5 57.5684 15.5H54.1084V22.96ZM54.1084 11.54H57.2884C58.1151 11.54 58.7951 11.38 59.3284 11.06C59.8751 10.7267 60.2884 10.2867 60.5684 9.74C60.8484 9.18 60.9884 8.57333 60.9884 7.92C60.9884 6.66666 60.6218 5.80666 59.8884 5.34C59.1684 4.87333 58.1884 4.64 56.9484 4.64H54.1084V11.54ZM76.1016 5.02H69.4816V0.599999H87.7016V5.02H81.1016V27H76.1016V5.02ZM91.2178 0.599999H96.2178V22.58H106.118V27H91.2178V0.599999ZM110.239 0.599999H126.619V5.02H115.199V11.62H126.459V15.9H115.199V22.58H126.619V27H110.239V0.599999ZM136.609 5.02H129.989V0.599999H148.209V5.02H141.609V27H136.609V5.02ZM159.322 17.5L150.302 0.599999H156.362L161.802 11.76L167.262 0.599999H173.282L164.322 17.5V27H159.322V17.5Z" fill="black"/>
</svg>
